<mxfile host="app.diagrams.net" modified="2022-10-25T18:30:17.570Z" agent="5.0 (Windows NT 10.0; Win64; x64) AppleWebKit/537.36 (KHTML, like Gecko) Chrome/106.0.0.0 Safari/537.36" etag="GBngebvWz3QLoilJHKJP" version="20.5.1" type="github">
  <diagram id="63D72SgwzXhJsw552Y7y" name="Page-1">
    <mxGraphModel dx="2400" dy="1877" grid="1" gridSize="10" guides="1" tooltips="1" connect="1" arrows="1" fold="1" page="1" pageScale="1" pageWidth="850" pageHeight="1100" math="0" shadow="0">
      <root>
        <mxCell id="0" />
        <mxCell id="1" parent="0" />
        <mxCell id="CDy29QJ3iSJho3cvlN1d-1" value="" style="endArrow=none;html=1;rounded=0;" edge="1" parent="1">
          <mxGeometry width="50" height="50" relative="1" as="geometry">
            <mxPoint as="sourcePoint" />
            <mxPoint x="480" as="targetPoint" />
          </mxGeometry>
        </mxCell>
        <mxCell id="CDy29QJ3iSJho3cvlN1d-2" value="" style="endArrow=none;html=1;rounded=0;" edge="1" parent="1">
          <mxGeometry width="50" height="50" relative="1" as="geometry">
            <mxPoint x="40" as="sourcePoint" />
            <mxPoint x="80" y="-120" as="targetPoint" />
          </mxGeometry>
        </mxCell>
        <mxCell id="CDy29QJ3iSJho3cvlN1d-3" value="" style="endArrow=none;html=1;rounded=0;" edge="1" parent="1">
          <mxGeometry width="50" height="50" relative="1" as="geometry">
            <mxPoint x="80" y="-120" as="sourcePoint" />
            <mxPoint x="400" y="-120" as="targetPoint" />
          </mxGeometry>
        </mxCell>
        <mxCell id="CDy29QJ3iSJho3cvlN1d-4" value="" style="endArrow=none;html=1;rounded=0;" edge="1" parent="1">
          <mxGeometry width="50" height="50" relative="1" as="geometry">
            <mxPoint x="440" as="sourcePoint" />
            <mxPoint x="400" y="-120" as="targetPoint" />
          </mxGeometry>
        </mxCell>
        <mxCell id="CDy29QJ3iSJho3cvlN1d-5" value="" style="endArrow=none;html=1;rounded=0;exitX=0.5;exitY=0;exitDx=0;exitDy=0;strokeColor=#919191;" edge="1" parent="1" source="CDy29QJ3iSJho3cvlN1d-19">
          <mxGeometry width="50" height="50" relative="1" as="geometry">
            <mxPoint x="80" as="sourcePoint" />
            <mxPoint x="80" y="-120" as="targetPoint" />
          </mxGeometry>
        </mxCell>
        <mxCell id="CDy29QJ3iSJho3cvlN1d-6" value="" style="endArrow=none;html=1;rounded=0;strokeColor=#919191;" edge="1" parent="1">
          <mxGeometry width="50" height="50" relative="1" as="geometry">
            <mxPoint x="120" as="sourcePoint" />
            <mxPoint x="120" y="-120" as="targetPoint" />
          </mxGeometry>
        </mxCell>
        <mxCell id="CDy29QJ3iSJho3cvlN1d-7" value="" style="endArrow=none;html=1;rounded=0;strokeColor=#919191;" edge="1" parent="1">
          <mxGeometry width="50" height="50" relative="1" as="geometry">
            <mxPoint x="160" as="sourcePoint" />
            <mxPoint x="160" y="-120" as="targetPoint" />
          </mxGeometry>
        </mxCell>
        <mxCell id="CDy29QJ3iSJho3cvlN1d-8" value="" style="endArrow=none;html=1;rounded=0;strokeColor=#919191;" edge="1" parent="1">
          <mxGeometry width="50" height="50" relative="1" as="geometry">
            <mxPoint x="200" as="sourcePoint" />
            <mxPoint x="200" y="-120" as="targetPoint" />
          </mxGeometry>
        </mxCell>
        <mxCell id="CDy29QJ3iSJho3cvlN1d-9" value="" style="endArrow=none;html=1;rounded=0;strokeColor=#919191;" edge="1" parent="1">
          <mxGeometry width="50" height="50" relative="1" as="geometry">
            <mxPoint x="240" as="sourcePoint" />
            <mxPoint x="240" y="-120" as="targetPoint" />
          </mxGeometry>
        </mxCell>
        <mxCell id="CDy29QJ3iSJho3cvlN1d-13" value="" style="endArrow=none;html=1;rounded=0;strokeColor=#919191;" edge="1" parent="1">
          <mxGeometry width="50" height="50" relative="1" as="geometry">
            <mxPoint x="80" as="sourcePoint" />
            <mxPoint x="120" y="-120" as="targetPoint" />
          </mxGeometry>
        </mxCell>
        <mxCell id="CDy29QJ3iSJho3cvlN1d-14" value="" style="endArrow=none;html=1;rounded=0;strokeColor=#919191;" edge="1" parent="1">
          <mxGeometry width="50" height="50" relative="1" as="geometry">
            <mxPoint x="120" as="sourcePoint" />
            <mxPoint x="160" y="-120" as="targetPoint" />
          </mxGeometry>
        </mxCell>
        <mxCell id="CDy29QJ3iSJho3cvlN1d-15" value="" style="endArrow=none;html=1;rounded=0;strokeColor=#919191;" edge="1" parent="1">
          <mxGeometry width="50" height="50" relative="1" as="geometry">
            <mxPoint x="160" as="sourcePoint" />
            <mxPoint x="200" y="-120" as="targetPoint" />
          </mxGeometry>
        </mxCell>
        <mxCell id="CDy29QJ3iSJho3cvlN1d-16" value="" style="endArrow=none;html=1;rounded=0;strokeColor=#919191;" edge="1" parent="1">
          <mxGeometry width="50" height="50" relative="1" as="geometry">
            <mxPoint x="200" as="sourcePoint" />
            <mxPoint x="240" y="-120" as="targetPoint" />
          </mxGeometry>
        </mxCell>
        <mxCell id="CDy29QJ3iSJho3cvlN1d-18" value="0" style="text;html=1;strokeColor=none;fillColor=none;align=center;verticalAlign=middle;whiteSpace=wrap;rounded=0;" vertex="1" parent="1">
          <mxGeometry x="10" width="60" height="30" as="geometry" />
        </mxCell>
        <mxCell id="CDy29QJ3iSJho3cvlN1d-19" value="0.2" style="text;html=1;strokeColor=none;fillColor=none;align=center;verticalAlign=middle;whiteSpace=wrap;rounded=0;" vertex="1" parent="1">
          <mxGeometry x="50" width="60" height="30" as="geometry" />
        </mxCell>
        <mxCell id="CDy29QJ3iSJho3cvlN1d-20" value="1.8" style="text;html=1;strokeColor=none;fillColor=none;align=center;verticalAlign=middle;whiteSpace=wrap;rounded=0;" vertex="1" parent="1">
          <mxGeometry x="370" width="60" height="30" as="geometry" />
        </mxCell>
        <mxCell id="CDy29QJ3iSJho3cvlN1d-22" value="2" style="text;html=1;strokeColor=none;fillColor=none;align=center;verticalAlign=middle;whiteSpace=wrap;rounded=0;" vertex="1" parent="1">
          <mxGeometry x="410" width="60" height="30" as="geometry" />
        </mxCell>
        <mxCell id="CDy29QJ3iSJho3cvlN1d-23" value="" style="endArrow=none;dashed=1;html=1;dashPattern=1 3;strokeWidth=2;rounded=0;" edge="1" parent="1">
          <mxGeometry width="50" height="50" relative="1" as="geometry">
            <mxPoint y="-108" as="sourcePoint" />
            <mxPoint x="480" y="-108" as="targetPoint" />
          </mxGeometry>
        </mxCell>
        <mxCell id="CDy29QJ3iSJho3cvlN1d-24" value="" style="endArrow=none;html=1;rounded=0;strokeColor=#919191;" edge="1" parent="1">
          <mxGeometry width="50" height="50" relative="1" as="geometry">
            <mxPoint x="280" as="sourcePoint" />
            <mxPoint x="280" y="-120" as="targetPoint" />
          </mxGeometry>
        </mxCell>
        <mxCell id="CDy29QJ3iSJho3cvlN1d-25" value="" style="endArrow=none;html=1;rounded=0;strokeColor=#919191;" edge="1" parent="1">
          <mxGeometry width="50" height="50" relative="1" as="geometry">
            <mxPoint x="240" as="sourcePoint" />
            <mxPoint x="280" y="-120" as="targetPoint" />
          </mxGeometry>
        </mxCell>
        <mxCell id="CDy29QJ3iSJho3cvlN1d-26" value="" style="endArrow=none;html=1;rounded=0;strokeColor=#919191;" edge="1" parent="1">
          <mxGeometry width="50" height="50" relative="1" as="geometry">
            <mxPoint x="320" as="sourcePoint" />
            <mxPoint x="320" y="-120" as="targetPoint" />
          </mxGeometry>
        </mxCell>
        <mxCell id="CDy29QJ3iSJho3cvlN1d-27" value="" style="endArrow=none;html=1;rounded=0;strokeColor=#919191;" edge="1" parent="1">
          <mxGeometry width="50" height="50" relative="1" as="geometry">
            <mxPoint x="280" as="sourcePoint" />
            <mxPoint x="320" y="-120" as="targetPoint" />
          </mxGeometry>
        </mxCell>
        <mxCell id="CDy29QJ3iSJho3cvlN1d-28" value="" style="endArrow=none;html=1;rounded=0;strokeColor=#919191;" edge="1" parent="1">
          <mxGeometry width="50" height="50" relative="1" as="geometry">
            <mxPoint x="360" as="sourcePoint" />
            <mxPoint x="360" y="-120" as="targetPoint" />
          </mxGeometry>
        </mxCell>
        <mxCell id="CDy29QJ3iSJho3cvlN1d-29" value="" style="endArrow=none;html=1;rounded=0;strokeColor=#919191;" edge="1" parent="1">
          <mxGeometry width="50" height="50" relative="1" as="geometry">
            <mxPoint x="320" as="sourcePoint" />
            <mxPoint x="360" y="-120" as="targetPoint" />
          </mxGeometry>
        </mxCell>
        <mxCell id="CDy29QJ3iSJho3cvlN1d-30" value="" style="endArrow=none;html=1;rounded=0;strokeColor=#919191;" edge="1" parent="1">
          <mxGeometry width="50" height="50" relative="1" as="geometry">
            <mxPoint x="400" as="sourcePoint" />
            <mxPoint x="400" y="-120" as="targetPoint" />
          </mxGeometry>
        </mxCell>
        <mxCell id="CDy29QJ3iSJho3cvlN1d-31" value="" style="endArrow=none;html=1;rounded=0;strokeColor=#919191;" edge="1" parent="1">
          <mxGeometry width="50" height="50" relative="1" as="geometry">
            <mxPoint x="360" as="sourcePoint" />
            <mxPoint x="400" y="-120" as="targetPoint" />
          </mxGeometry>
        </mxCell>
        <mxCell id="CDy29QJ3iSJho3cvlN1d-32" value="75.000 pulsen per seconde" style="text;html=1;strokeColor=none;fillColor=none;align=center;verticalAlign=middle;whiteSpace=wrap;rounded=0;" vertex="1" parent="1">
          <mxGeometry x="440" y="-110" width="150" height="30" as="geometry" />
        </mxCell>
        <mxCell id="CDy29QJ3iSJho3cvlN1d-33" value="Seconden" style="text;html=1;strokeColor=none;fillColor=none;align=center;verticalAlign=middle;whiteSpace=wrap;rounded=0;" vertex="1" parent="1">
          <mxGeometry x="450" width="60" height="30" as="geometry" />
        </mxCell>
        <mxCell id="CDy29QJ3iSJho3cvlN1d-34" value="" style="endArrow=none;html=1;rounded=0;" edge="1" parent="1">
          <mxGeometry width="50" height="50" relative="1" as="geometry">
            <mxPoint as="sourcePoint" />
            <mxPoint y="-160" as="targetPoint" />
          </mxGeometry>
        </mxCell>
        <mxCell id="CDy29QJ3iSJho3cvlN1d-35" value="Pulsen" style="text;html=1;strokeColor=none;fillColor=none;align=center;verticalAlign=middle;whiteSpace=wrap;rounded=0;direction=west;rotation=270;" vertex="1" parent="1">
          <mxGeometry x="-20" y="-150" width="60" height="30" as="geometry" />
        </mxCell>
      </root>
    </mxGraphModel>
  </diagram>
</mxfile>
